<?xml version="1.0" encoding="UTF-8"?>
<svg id="Layer_2" data-name="Layer 2" xmlns="http://www.w3.org/2000/svg" viewBox="0 0 221.78 429.88">
  <defs>
    <style>
      .cls-1, .cls-2, .cls-3, .cls-4, .cls-5, .cls-6 {
        fill: none;
      }

      .cls-1, .cls-2, .cls-3, .cls-4, .cls-6 {
        stroke-linejoin: round;
      }

      .cls-1, .cls-2, .cls-4, .cls-6 {
        stroke-linecap: round;
      }

      .cls-1, .cls-3, .cls-7, .cls-4 {
        stroke: #11468f;
      }

      .cls-2, .cls-8, .cls-5, .cls-6 {
        stroke: #da1212;
      }

      .cls-9 {
        fill: #da1212;
      }

      .cls-10 {
        fill: #11468f;
      }

      .cls-8 {
        fill: #292f39;
      }

      .cls-8, .cls-7, .cls-5 {
        stroke-miterlimit: 10;
      }

      .cls-7 {
        fill: #282828;
      }

      .cls-4 {
        stroke-width: 1px;
      }

      .cls-6 {
        stroke-dasharray: 0 0 0 0 0 0 2.55 2.3;
      }
    </style>
  </defs>
  <g>
    <g>
      <line class="cls-1" x1="128.37" y1="2.84" x2="115.34" y2="2.85"/>
      <path class="cls-1" d="M110.59,2.85h-1.46c-1.29,0-2.36,1.35-2.36,2.99l.04,24.52c0,1.64,1.07,2.99,2.36,2.99h25.46c1.29,0,2.36-1.35,2.36-2.99l-.04-24.52c0-1.64-1.07-2.99-2.37-2.99h-1.46"/>
      <path class="cls-1" d="M129.31,2.29c0-.99,.63-1.79,1.41-1.79h.04c.78,0,1.41,.8,1.41,1.79v2.76c0,.99-.63,1.79-1.4,1.79h-.04c-.78,0-1.41-.8-1.41-1.79V2.29h0Z"/>
      <path class="cls-1" d="M111.53,2.29c0-.99,.63-1.79,1.41-1.79h.04c.78,0,1.41,.8,1.41,1.79v2.76c0,.99-.63,1.79-1.4,1.79h-.04c-.78,0-1.41-.8-1.41-1.79V2.29h0Z"/>
      <path class="cls-1" d="M133.37,27.19c0,.52-.31,.96-.68,.96h-21.62c-.37,0-.68-.43-.68-.96l-.03-16.58h22.97l.03,16.57h0Z"/>
    </g>
    <polyline class="cls-1" points="117.3 19.61 120.72 23.77 126.45 15.21"/>
  </g>
  <g>
    <path class="cls-5" d="M97.36,104.03c-.24,.73-.17,1.64-.02,2.38,.41,1.97,1.66,3.22,2.77,4.57,.63,.76,1.25,1.54,1.82,2.39,.16,.24,.31,.51,.59,.41,.2-.07,.34-.37,.47-.56,.66-.93,1.38-1.79,2.1-2.63,1.01-1.18,2.05-2.33,2.44-4.05,.32-1.39,.11-2.88-.66-3.97-1.22-1.71-3.32-1.44-4.41,.2-.68-1.07-1.77-1.59-2.88-1.32-1.03,.25-1.96,1.29-2.22,2.59h0Z"/>
    <path class="cls-5" d="M77.57,121.85c.41,1.97,1.66,3.22,2.77,4.57,.63,.76,1.25,1.54,1.82,2.39,.16,.24,.31,.51,.59,.41,.2-.07,.34-.37,.47-.56,.66-.93,1.38-1.79,2.1-2.63,1.01-1.18,2.05-2.33,2.44-4.05,.32-1.39,.11-2.88-.66-3.97-1.22-1.71-3.32-1.44-4.41,.2-.68-1.07-1.77-1.59-2.88-1.32-1.03,.25-1.96,1.29-2.22,2.59-.24,.73-.17,1.64-.02,2.38h0Z"/>
    <g>
      <path class="cls-2" d="M85.3,130.51c.37,.17,.74,.31,1.12,.43"/>
      <path class="cls-6" d="M88.56,131.39c.54,.06,1.07,.09,1.6,.09,1.58,.02,3.47,.02,4.99-.61,.58-.25,1.14-.67,1.46-1.3,.95-1.86-.25-3.97-.91-5.63-.43-1.08-.71-2.41-.22-3.46,.33-.7,.95-1.15,1.59-1.37,1.18-.39,2.58-.33,3.65-.93"/>
      <path class="cls-2" d="M101.6,117.39c.24-.34,.42-.76,.56-1.31"/>
    </g>
  </g>
  <g>
    <g>
      <line class="cls-3" x1="151.96" y1="176.63" x2="149.18" y2="180.71"/>
      <line class="cls-3" x1="148.33" y1="180.72" x2="144.82" y2="175.42"/>
      <line class="cls-3" x1="144.13" y1="175.53" x2="139.48" y2="183.03"/>
      <path class="cls-3" d="M148.01,181.74c-.15-.71,.38-1.33,.97-1.14,.25,.08,.47,.34,.54,.64,.15,.71-.38,1.33-.97,1.14-.25-.08-.47-.34-.54-.64Z"/>
      <path class="cls-3" d="M151.62,176.09c-.15-.71,.38-1.33,.97-1.14,.25,.08,.47,.34,.54,.64,.15,.71-.38,1.33-.97,1.14-.25-.08-.47-.34-.54-.64Z"/>
      <path class="cls-3" d="M138.47,184.15c-.15-.71,.38-1.33,.97-1.14,.25,.08,.47,.34,.54,.64,.15,.71-.38,1.33-.97,1.14-.25-.08-.47-.34-.54-.64Z"/>
      <path class="cls-3" d="M143.63,174.89c-.15-.71,.38-1.33,.97-1.14,.25,.08,.47,.34,.54,.64,.15,.71-.38,1.33-.97,1.14-.25-.08-.47-.34-.54-.64Z"/>
    </g>
    <g>
      <rect class="cls-4" x="136.31" y="165.54" width="19" height="26.78" transform="translate(-33.66 324.08) rotate(-89.79)"/>
      <path class="cls-1" d="M150.68,194.88l-9.83-.04c-.66,0-1.2-.64-1.2-1.43h0c0-.78,.55-1.42,1.21-1.42l9.83,.04c.66,0,1.2,.64,1.2,1.43h0c0,.78-.55,1.42-1.21,1.42Z"/>
      <line class="cls-1" x1="148.03" y1="188.42" x2="149.43" y2="192.02"/>
      <line class="cls-1" x1="143.53" y1="188.41" x2="142.1" y2="192"/>
    </g>
  </g>
  <g>
    <g>
      <polygon class="cls-2" points="149.78 302.7 134.49 298.62 134.88 272.34 150.28 268.75 149.78 302.7"/>
      <polyline class="cls-2" points="151.91 298.25 154.72 298.3 154.92 284.56 158.06 284.61 158.18 276.29"/>
      <polyline class="cls-2" points="155.05 276.24 155.09 273.32 152.28 273.27"/>
      <polyline class="cls-2" points="158.02 287.1 157.89 295.42 156.83 295.42"/>
    </g>
    <polyline class="cls-2" points="138.95 289.22 139.66 280.91 144.73 290.39 146.15 278.41"/>
  </g>
  <g>
    <path class="cls-2" d="M34.98,16.04c-1.41-.73-2.9-1.28-4.46-1.6l-1.38-.28L22.35,2.76l-3.87-1.03,1.84,10.57-6.04-1.26-2.91-4.94-2.51-.66,.24,7.75,21.73,6.98c1.51,.47,7.53,2.47,8.09,.38,.34-1.27,.58-2.2-3.93-4.51h0Z"/>
    <line class="cls-2" x1="8.91" y1="24.36" x2="39.08" y2="24.26"/>
  </g>
  <g>
    <g>
      <path class="cls-2" d="M209.59,16.8s3.15,.33,2.86-.76"/>
      <path class="cls-2" d="M209.51,14.58l-4.45,.31c-2.29,.16-4.64,.36-7.13,.62l-1.45-1.42h-1.51l1.3,4.32,2.59,.12,3.58,.18-3.84,4.43h2.96l6.13-4.18,1.84,.09c.92,.04,4.6-.08,4.6-1.01,0-.98-1.71-2.05-1.71-2.05,0,0-.41-1.51-2.91-1.43h0Z"/>
      <polyline class="cls-2" points="207.67 14.73 202.78 11.8 200.45 11.81 202.43 14.99"/>
      <line class="cls-2" x1="202.68" y1="16.83" x2="202.03" y2="16.83"/>
      <line class="cls-2" x1="204.55" y1="16.82" x2="203.93" y2="16.82"/>
      <line class="cls-2" x1="206.43" y1="16.81" x2="205.81" y2="16.81"/>
      <line class="cls-2" x1="208.33" y1="16.81" x2="207.68" y2="16.81"/>
    </g>
    <g>
      <path class="cls-2" d="M208.53,8.8c-1.88,0-3.65-.46-5.19-1.28"/>
      <path class="cls-2" d="M213.59,7.54c-1.11-2.14-2.87-4.04-5.07-5.6l.03,6.85c1.83,0,3.54-.46,5.05-1.25h0Z"/>
      <path class="cls-2" d="M208.51,1.94s-.06-.05-.08-.07c-2.22,1.57-3.97,3.48-5.09,5.63,1.56,.82,3.32,1.29,5.19,1.28l-.03-6.85h0Z"/>
      <path class="cls-2" d="M202.88,8.48c.13-.33,.29-.65,.45-.97-1.07-.57-2.05-1.29-2.88-2.16-.55,.58-1.04,1.23-1.45,1.91"/>
      <path class="cls-2" d="M215.53,19.57c.39,.31,.76,.64,1.1,1.01"/>
      <path class="cls-2" d="M214.1,22.59c3.34-1.93,5.57-5.54,5.56-9.66h0l-4.72,.02h0c0,.69-.06,1.37-.18,2.03"/>
      <path class="cls-2" d="M213.59,7.54c1.12-.58,2.14-1.34,3-2.24-.86,.91-1.88,1.67-3,2.24,.87,1.68,1.36,3.5,1.36,5.4l4.72-.02c-.02-6.14-5.02-11.1-11.15-11.08h0v.09c2.22,1.56,3.96,3.46,5.08,5.6h0Z"/>
      <path class="cls-2" d="M211.99,12.95h2.95c0-1.91-.49-3.73-1.36-5.41-1.52,.78-3.22,1.24-5.05,1.25v3.05"/>
      <path class="cls-2" d="M208.43,1.88s.06,.05,.08,.07v-.09c-3.18,0-6.02,1.36-8.05,3.5,.83,.87,1.8,1.59,2.88,2.16,1.11-2.15,2.87-4.07,5.09-5.63Z"/>
    </g>
    <line class="cls-2" x1="195.97" y1="11.83" x2="192.16" y2="11.84"/>
    <line class="cls-2" x1="196.02" y1="23.15" x2="192.19" y2="23.16"/>
    <line class="cls-2" x1="193.33" y1="16.9" x2="189.51" y2="16.92"/>
  </g>
  <g>
    <path class="cls-1" d="M125.07,419.39s4.97,.51,4.5-1.21"/>
    <path class="cls-1" d="M124.96,415.88l-7.01,.5c-3.62,.25-7.31,.56-11.24,.97l-2.29-2.24h-2.38l2.05,6.82,4.08,.2,5.65,.27-6.04,6.99,4.66-.02,9.65-6.56,2.89,.14c1.45,.06,7.25-.13,7.25-1.58,0-1.55-2.69-3.21-2.69-3.21,0,0-.64-2.39-4.58-2.26h0Z"/>
    <polyline class="cls-1" points="122.07 416.12 114.35 411.51 110.67 411.52 113.8 416.54"/>
    <line class="cls-1" x1="114.19" y1="419.43" x2="113.16" y2="419.43"/>
    <line class="cls-1" x1="117.15" y1="419.42" x2="116.16" y2="419.42"/>
    <line class="cls-1" x1="120.11" y1="419.4" x2="119.12" y2="419.41"/>
    <line class="cls-1" x1="123.1" y1="419.39" x2="122.08" y2="419.4"/>
  </g>
  <g>
    <path class="cls-1" d="M83.14,232.18l3.29-1.62-.99-.99-3.92,.82-2.24-2.47,3.14-1.64,.82,.81,1.12-.58-.83-.82,2.81-1.46-1.54-1.53-3.62,.66-1.62-1.61c-.24-.24-.61-.24-.85,0s-.24,.61,0,.85l1.03,1.02-3.74,.68-1.15-1.26c-.58-.63-3.49-2.55-4.09-1.95s1.35,3.51,1.98,4.08l1.27,1.14-.65,3.75-1.03-1.02c-.24-.24-.61-.24-.85,0s-.24,.61,0,.85l1.62,1.61-.63,3.63,1.54,1.53,1.44-2.82,.83,.82,.57-1.12-.82-.81,1.61-3.15,2.49,2.22-.79,3.92,.99,.99,1.59-3.3,.93,.84c.31,.28,.79,.27,1.09-.03,.3-.3,.31-.78,.02-1.09l-.84-.92,.02-.03Z"/>
    <g>
      <path class="cls-1" d="M88.57,230.57c.97-1.9,1.5-3.95,1.49-6.09h-1.73"/>
      <path class="cls-1" d="M82.83,219.82c-2.12,0-4.1-.53-5.85-1.45"/>
      <path class="cls-1" d="M88.53,218.4c-1.25-2.41-3.22-4.55-5.71-6.31l.03,7.72c2.06,0,3.98-.53,5.69-1.41Z"/>
      <path class="cls-1" d="M82.81,212.09s-.07-.05-.09-.08c-2.5,1.76-4.47,3.92-5.73,6.34,1.74,.92,3.73,1.45,5.85,1.45l-.03-7.72h0Z"/>
      <path class="cls-1" d="M76.47,219.46c.15-.37,.32-.74,.51-1.09-1.21-.64-2.3-1.45-3.23-2.43-.62,.66-1.17,1.38-1.63,2.16"/>
      <path class="cls-1" d="M89.11,235.34c3.75-2.17,6.27-6.23,6.26-10.88h0l-5.31,.02h0c0,2.14-.52,4.2-1.49,6.09,1.26,.65,2.41,1.49,3.38,2.51-.97-1.02-2.12-1.86-3.38-2.51"/>
      <path class="cls-1" d="M88.53,218.4c1.26-.66,2.4-1.51,3.38-2.53-.96,1.03-2.11,1.88-3.38,2.53,.98,1.89,1.53,3.93,1.53,6.08l5.31-.02c-.03-6.91-5.65-12.49-12.56-12.47h0v.1c2.49,1.75,4.46,3.89,5.71,6.31h0Z"/>
      <path class="cls-1" d="M90.06,224.48c0-2.14-.55-4.2-1.53-6.08-1.71,.89-3.63,1.4-5.69,1.41"/>
      <path class="cls-1" d="M82.71,212.03s.07,.05,.09,.08v-.1c-3.57,0-6.79,1.53-9.06,3.94,.93,.98,2.03,1.79,3.23,2.43,1.25-2.42,3.22-4.58,5.73-6.34Z"/>
    </g>
    <path class="cls-7" d="M85.43,234.55s.38,.31,1.03,.74c.67,.43,1.68,1,2.98,1.47,1.29,.47,2.88,.85,4.61,.86,1.68,0,3.56-.54,4.9-1.78,.67-.62,1.16-1.41,1.43-2.26,.28-.86,.37-1.76,.3-2.63-.12-1.74-.87-3.27-1.64-4.43-.78-1.17-1.63-2.01-2.24-2.55-.62-.55-1.01-.81-1.01-.81,0,0,.4,.25,1.04,.78,.63,.53,1.51,1.34,2.34,2.5,.82,1.15,1.62,2.68,1.81,4.49,.09,.9,.04,1.85-.24,2.76-.26,.92-.77,1.8-1.47,2.49-.7,.7-1.57,1.21-2.46,1.54-.91,.34-1.84,.51-2.76,.55-1.82,.05-3.5-.3-4.87-.75-1.38-.45-2.46-1.02-3.2-1.45-.74-.45-1.11-.74-1.11-.74l-.03-.03c-.21-.16-.25-.45-.08-.66,.16-.21,.45-.25,.66-.08h0l.02,.02Z"/>
  </g>
  <g>
    <path class="cls-1" d="M211.6,367.98c-.44-1.11-.77-1.91-4.22-.58-1.08,.42-2.12,1.02-3.08,1.81l-.85,.7-9.06-3.51-2.5,1.83,6.09,6.19-3.73,3.09-3.91-1.55-1.61,1.18,3.89,5.27,14.62-9.4c1.01-.66,5.09-3.22,4.36-5.05h0Z"/>
    <path class="cls-7" d="M174.79,369.91s-.08,.55-.23,1.51c-.06,.48-.21,1.06-.21,1.74-.02,.68-.1,1.44-.08,2.27,.03,.41,.06,.85,.08,1.29,.02,.45,.06,.91,.17,1.37,.08,.46,.18,.93,.27,1.41,.15,.45,.31,.91,.46,1.39,.13,.49,.39,.89,.6,1.33l.34,.65c.12,.21,.27,.38,.41,.58,.53,.8,1.21,1.4,1.9,1.97l1.08,.68c.38,.17,.76,.29,1.14,.44,.37,.19,.77,.17,1.15,.25,.39,.08,.76,.13,1.14,.09,.38-.02,.74,0,1.1-.04,.36-.08,.71-.15,1.05-.23,.69-.08,1.29-.46,1.88-.65,.58-.23,1.07-.6,1.52-.84s.81-.57,1.11-.8c.6-.48,.95-.75,.95-.75l.06-.05c.28-.23,.64-.09,.8,.28,.16,.38,.08,.87-.21,1.08,0,0-.02,0-.02,.02,0,0-.38,.27-1.04,.74-.33,.23-.72,.56-1.22,.78-.49,.24-1.03,.58-1.65,.8-.63,.17-1.28,.53-2.03,.58-.37,.06-.74,.11-1.12,.17-.39,0-.78-.02-1.19-.03-.41,.02-.81-.07-1.22-.17-.41-.11-.83-.13-1.23-.35-.41-.18-.81-.35-1.21-.56l-1.14-.8c-.71-.64-1.41-1.33-1.95-2.22-.14-.22-.29-.41-.41-.63l-.33-.71c-.22-.47-.46-.91-.58-1.43-.15-.5-.29-.99-.43-1.47-.08-.5-.16-1-.24-1.48-.09-.47-.12-.94-.12-1.4-.02-.46-.03-.9-.04-1.32,0-.85,.11-1.62,.16-2.3,.03-.69,.2-1.24,.27-1.73,.18-.95,.28-1.5,.28-1.5l-.07,.02Z"/>
  </g>
  <g>
    <g>
      <path class="cls-1" d="M216.32,129.51c.76,.92-2.43,1.99-2.43,1.99"/>
      <path class="cls-1" d="M211.08,130.33l-2.42,1.31c-2.15,1.16-4.34,2.38-6.65,3.72l-2.04-.74-1.46,.67,3.16,3.62,2.56-1.02,3.55-1.4-1.78,5.98,2.87-1.31,4.11-6.72,1.82-.72c.91-.37,4.42-2.1,4.02-2.99-.43-.95-2.55-1.24-2.55-1.24,0,0-1.06-1.29-3.45-.11l-1.76,.95"/>
      <polyline class="cls-1" points="206.16 132.89 202.84 130.67 205.09 129.64 211.08 130.33"/>
      <line class="cls-1" x1="211.08" y1="130.33" x2="211.12" y2="130.33"/>
      <line class="cls-1" x1="206.56" y1="134.85" x2="207.2" y2="134.56"/>
      <line class="cls-1" x1="208.41" y1="134.01" x2="209.01" y2="133.73"/>
      <line class="cls-1" x1="210.23" y1="133.18" x2="210.83" y2="132.9"/>
      <line class="cls-1" x1="212.67" y1="132.06" x2="212.05" y2="132.35"/>
    </g>
    <path class="cls-7" d="M219.07,128.32s.12-.18,.36-.51c.22-.34,.54-.84,.87-1.52,.32-.68,.66-1.54,.8-2.57,.14-1.02,.06-2.26-.6-3.37-.62-1.12-1.75-2.02-3.11-2.55-1.36-.55-2.91-.78-4.51-.79-3.21,0-6.6,.8-9.72,2.2-1.56,.7-3.08,1.5-4.46,2.45-1.39,.94-2.66,2-3.76,3.15-1.09,1.15-2.02,2.39-2.64,3.68-.63,1.28-.93,2.63-.8,3.83,.12,1.2,.67,2.2,1.37,2.87,.69,.68,1.47,1.08,2.13,1.36,.67,.26,1.22,.4,1.59,.48,.38,.08,.58,.11,.58,.11h.03c.25,.06,.42,.3,.38,.56s-.29,.42-.55,.38h0s-.22-.05-.63-.13c-.41-.09-1.01-.25-1.73-.56-.73-.31-1.6-.77-2.39-1.58-.8-.79-1.43-2-1.56-3.39-.13-1.39,.25-2.87,.94-4.22,.69-1.37,1.68-2.64,2.83-3.81,1.15-1.17,2.48-2.22,3.91-3.17,1.43-.95,2.99-1.73,4.58-2.41,3.19-1.37,6.65-2.12,9.91-2.06,1.62,.04,3.21,.3,4.59,.89,1.38,.57,2.55,1.53,3.16,2.69,.66,1.14,.73,2.41,.57,3.45-.16,1.05-.52,1.9-.85,2.58-.34,.68-.68,1.17-.9,1.5-.24,.33-.36,.5-.36,.5h-.03Z"/>
  </g>
  <path class="cls-2" d="M30.3,384.39l-4.9-3.4v-3.71c-.02-.54-.45-.97-.99-.97s-.97,.44-.97,.97v2.36l-5.06-3.52,.13-2.77c.06-1.39-1.07-6.93-2.46-6.93s-2.48,5.56-2.41,6.95l.15,2.76-5.05,3.55v-2.36c0-.54-.44-.97-.98-.97s-.97,.44-.97,.97v3.71l-4.86,3.43v3.52l4.9-1.57v1.89l1.95-.63v-1.88l5.46-1.76,.3,5.4-5.41,3.59v2.27l5.63-1.96,.11,2.03c.03,.69,.6,1.23,1.28,1.23s1.25-.55,1.27-1.24l.1-2.03,5.63,1.92v-2.27l-5.44-3.55,.26-5.4,5.48,1.73v1.88l1.95,.62v-1.89l4.89,1.54v-3.5Z"/>
  <g>
    <path class="cls-1" d="M32.7,90.35v-3.52l-11.93-4.5,.13-2.77c.06-1.39-1.07-6.93-2.46-6.93s-2.48,5.56-2.41,6.95l.15,2.76-11.88,4.58v3.52l12.32-.19,.3,5.4-5.41,3.59v2.27l5.63-1.96,.11,2.03c.03,.69,.6,1.23,1.28,1.23s1.25-.55,1.27-1.24l.1-2.03,5.63,1.92v-2.27l-5.44-3.55,.26-5.4,12.31,.1h.02Z"/>
    <line class="cls-1" x1="11.81" y1="84.03" x2="11.8" y2="80.71"/>
    <line class="cls-1" x1="7.85" y1="85.57" x2="7.84" y2="82.25"/>
    <line class="cls-1" x1="25.18" y1="83.98" x2="25.17" y2="80.67"/>
    <line class="cls-1" x1="23.33" y1="97.74" x2="23.32" y2="95.61"/>
    <line class="cls-1" x1="13.75" y1="97.78" x2="13.75" y2="95.64"/>
    <line class="cls-1" x1="29.15" y1="85.49" x2="29.14" y2="82.17"/>
  </g>
  <g>
    <path class="cls-9" d="M152.62,61.35c2.26,0,3.96-2.31,3.96-4.37,0-2.18-1.77-3.96-3.96-3.96s-3.96,1.77-3.96,3.96c0,2.06,1.69,4.37,3.96,4.37Zm0-7.54c1.74,0,3.17,1.42,3.17,3.18s-1.36,3.58-3.17,3.58-3.18-1.9-3.18-3.58,1.42-3.18,3.18-3.18Z"/>
    <path class="cls-9" d="M181.75,65.87c-.27-.33-.69-.5-1.16-.49-.43,.02-.88,.19-1.24,.49l-4.93,3.83h-4.04l-4.88-3.71c-.37-.3-.81-.47-1.24-.49-.47,0-.9,.16-1.16,.49s-.36,.77-.26,1.23c.09,.42,.35,.83,.73,1.13l2.58,2.13,3.22,2.89v14.24c0,.98,.8,1.78,1.78,1.78,.56,0,1.07-.26,1.39-.67,.33,.41,.83,.67,1.39,.67,.98,0,1.78-.8,1.78-1.78v-14.39l3.03-2.88,2.57-2.12c.37-.3,.62-.71,.73-1.13,.1-.45,0-.91-.25-1.23h-.02Zm-.5,1.07c-.06,.25-.23,.51-.45,.71l-2.58,2.13s0,0-.02,.02l-3.16,3.01c-.08,.08-.12,.17-.12,.28v14.55c0,.55-.44,1-1,1s-1-.44-1-1v-7.56c0-.22-.18-.4-.4-.4s-.4,.18-.4,.4v7.56c0,.55-.44,1-1,1s-1-.44-1-1v-14.42c0-.11-.05-.22-.13-.29l-3.36-3.02h0s-2.58-2.14-2.58-2.14c-.24-.19-.4-.45-.46-.71-.03-.13-.06-.37,.1-.56s.4-.21,.53-.21c.26,0,.55,.12,.78,.32h0s5,3.8,5,3.8c.07,.05,.15,.08,.24,.08h4.3c.08,0,.17-.03,.24-.08l5.04-3.91h0c.24-.19,.52-.31,.77-.31,.13,0,.38,.02,.53,.21,.15,.19,.13,.43,.1,.56l.02-.02Z"/>
    <path class="cls-9" d="M167.13,64.34l1.72,.91v.08c0,1.73,1.41,3.66,3.31,3.66s3.32-1.92,3.32-3.66c0-.08,0-.16,0-.24,0-.03,0-.06,0-.08,0-.06,0-.11-.04-.16-.24-1.6-1.61-2.84-3.28-2.84-1.51,0-2.79,1.02-3.19,2.4l-1.47-.77c-.19-.1-.42-.03-.53,.16s-.03,.42,.16,.53h0Zm5.03,3.87c-1.42,0-2.49-1.46-2.53-2.79h5.05c-.04,1.34-1.1,2.79-2.53,2.79h0Zm0-5.4c1.15,0,2.12,.77,2.43,1.82h-4.86c.31-1.06,1.28-1.82,2.43-1.82Z"/>
    <path class="cls-9" d="M165.89,83.13c-.34-.43-.74-.79-1.22-1.07-.42-.25-.89-.42-1.38-.53-.44-.08-.9-.09-1.35-.04-.75,.09-1.46,.39-2.06,.85-.88-3.66-1.66-7-2.39-10.2-.04-.17-.08-.35-.12-.53-.38-1.6-.86-3.59,.02-4.92,.6-.93,4.85-4.34,6.43-5.57h0c.46-.39,.78-.89,.91-1.41,.13-.57,.02-1.1-.31-1.5-.33-.41-.84-.61-1.41-.59-.54,.02-1.09,.24-1.56,.61l-4.99,3.86h-8.26c-1.24,0-2.26,1.04-2.39,2.37v8.9c0,1.08,.8,1.96,1.79,1.96,.38,0,.73-.12,1.01-.34v12.67c0,1.33,.99,2.41,2.2,2.41s2.2-1.08,2.2-2.41v-9.79c0-.47,.38-.85,.85-.85s.85,.38,.85,.85v.08l1.87,9.52v.02c.31,1.29,1.52,2.12,2.7,1.84,.18-.04,.35-.11,.51-.2,.11,.09,.24,.18,.37,.26,.43,.28,.91,.48,1.41,.59,.29,.07,.6,.09,.91,.09,.24,0,.47-.02,.69-.06,1.04-.17,1.97-.71,2.63-1.52,.29-.36,.53-.76,.69-1.19,.19-.48,.27-.99,.27-1.52s-.09-1.04-.27-1.52c-.15-.4-.35-.76-.61-1.09l.03-.04Zm-.79,2.41h-1.13l-.58-1,.58-.93h1.3c.2,.25,.35,.53,.47,.82l-.64,1.11h0Zm-5.27-2.06h1.24l.54,1.05-.59,1.02h-1.13l-.64-1.11c.14-.35,.34-.67,.58-.95h0Zm-.11,4.41s-.04-.05-.06-.08c-.17-.23-.3-.48-.41-.74l.64-1.11h1.13l.48,.84-.67,1.08h-1.11Zm2.77-5.63c.2,0,.4,.02,.59,.05l.58,1.01-.66,1.07h-1.01l-.56-1.08,.58-1h.04c.15-.02,.29-.03,.44-.03h0Zm-3.38,6.26c-.76,.18-1.55-.38-1.75-1.25l-1.86-9.48c-.02-.89-.74-1.59-1.63-1.59s-1.63,.74-1.63,1.63v9.8c0,.9-.64,1.63-1.41,1.63s-1.41-.74-1.41-1.63v-19.7c0-.22-.17-.4-.39-.4s-.4,.18-.4,.4v5.44c0,.64-.46,1.16-1.01,1.16s-1.01-.53-1.01-1.18v-8.77c.07-.96,.76-1.72,1.62-1.72h8.4c.08,0,.17-.03,.24-.08l5.1-3.94h0c.33-.27,.72-.42,1.08-.43,.33,0,.61,.1,.79,.31,.17,.21,.23,.51,.15,.83-.08,.36-.3,.71-.63,.98-.61,.48-5.82,4.55-6.6,5.75-1.06,1.61-.54,3.79-.12,5.53,.04,.18,.08,.36,.12,.52,.74,3.23,1.53,6.6,2.41,10.3,.03,.11,.06,.23,.08,.34-.32,.38-.58,.8-.75,1.27-.19,.48-.28,1-.28,1.52s.09,1.04,.27,1.52c.13,.36,.32,.7,.55,1.01,.06,.08,.11,.14,.17,.22-.03,0-.06,.02-.09,.03h0Zm2.68,.65l-.61-1.06,.61-.99h1.24l.65,1.26-.45,.78c-.06,0-.11,.03-.17,.03-.41,.07-.86,.06-1.27-.03h0Zm3.42-1.22s-.08,.08-.11,.13h-1.1l-.59-1.16,.57-.98h1.13l.64,1.1c-.13,.32-.31,.63-.53,.9h0Z"/>
  </g>
  <g>
    <path class="cls-8" d="M24.57,162.93s-.09-.04-.14-.06c-.7-.27-1.43-.41-2.18-.41s-1.5,.14-2.19,.41c-.75,.29-1.44,.74-2.02,1.31-.58-.58-1.27-1.02-2.02-1.31-.69-.27-1.43-.41-2.19-.41s-1.48,.14-2.18,.41c-.05,.02-.08,.04-.13,.05-3.05,1.28-4.47,4.79-3.2,7.83,.44,1.04,1.16,1.93,2.08,2.58,0,0,0,0,.02,.02l7.36,5.36s.08,.06,.12,.07c.04,.02,.08,.02,.12,.02,.08,0,.16-.03,.23-.08l7.38-5.38s0,0,.02-.02c.92-.65,1.64-1.54,2.08-2.58,.62-1.47,.63-3.09,.03-4.58-.6-1.48-1.74-2.63-3.21-3.25v.02Zm2.5,7.54c-.39,.91-1.03,1.71-1.85,2.27,0,0-.03,.02-.04,.03l-7.14,5.2-7.14-5.2s-.02-.02-.04-.03c-.82-.57-1.46-1.35-1.85-2.27-1.12-2.65,.13-5.72,2.79-6.84,.65-.27,1.33-.41,2.02-.41,1.5,0,2.93,.65,3.92,1.77,.08,.08,.18,.13,.28,.13h0c.11,0,.22-.05,.28-.13,.99-1.12,2.42-1.77,3.92-1.77,.7,0,1.38,.14,2.02,.41,1.28,.54,2.28,1.55,2.81,2.84s.52,2.72-.02,4h.02Z"/>
    <path class="cls-8" d="M35.22,180.68h-3.4v-17.42h3.4c.16,0,.3-.09,.36-.25,.06-.15,0-.31-.11-.41l-16.79-14.31c-.14-.11-.34-.12-.49,0L.64,162.59c-.12,.1-.17,.27-.11,.42,.06,.15,.2,.25,.36,.25h3.4v17.42H.88c-.21,0-.38,.17-.38,.38s.17,.38,.38,.38H35.22c.21,0,.38-.17,.38-.38s-.17-.38-.38-.38v-.02Zm-4.4-17.42h.24v17.42H5.05v-17.42h1.2c.21,0,.38-.17,.38-.38s-.17-.38-.38-.38H1.95l2.43-1.98,14.05-11.45,15.77,13.43h-3.38c-.21,0-.38,.17-.38,.38s.17,.38,.38,.38h0Z"/>
  </g>
  <g>
    <polygon class="cls-9" points="204.37 247.66 207.63 245.69 206.83 245.22 204.37 247.66"/>
    <path class="cls-9" d="M208.49,245.16l1.24-.75c-.14,0-.28,0-.42,0h0s-.08,0-.1-.02c-.21,0-.41,.02-.62,.02-.3,0-.61,0-.91-.03l-.17,.17,1.02,.59h-.02Z"/>
    <path class="cls-9" d="M213.27,247.83l-2.82-2.82-1.08,.66,3.81,2.24,.08-.08h0Z"/>
    <path class="cls-9" d="M207.66,244.39c-.18-.02-.37-.03-.55-.05l.38,.23,.17-.17h0Z"/>
    <g>
      <path class="cls-9" d="M220.86,232.65c0-3.08-1.21-6-3.38-8.18-2.18-2.21-5.08-3.44-8.18-3.49-.12,0-.24,.05-.32,.12-.08,.08-.13,.2-.13,.32v9.8c-.58,.16-1.03,.61-1.18,1.18h-10.52s-.02-.03-.04-.04l-3.35-3.35c-.17-.17-.45-.17-.63,0s-.18,.45,0,.63l3.08,3.08s-.02,.08-.02,.12c.05,3.1,1.35,6.02,3.69,8.19,1.25,1.18,2.73,2.06,4.35,2.64l1.8,1.07-2.69,2.7c-.26-.12-.56-.19-.87-.19-1.16,0-2.09,.94-2.09,2.09s.94,2.09,2.09,2.09,2.09-.94,2.09-2.09c0-.24-.04-.47-.11-.68l4.04-2.46,4.22,2.49c-.07,.21-.1,.42-.1,.65,0,1.15,.94,2.09,2.09,2.09s2.09-.94,2.09-2.09-.94-2.09-2.09-2.09c-.23,0-.45,.04-.66,.1l-2.82-2.82,.76-.46c2.06-.51,3.96-1.58,5.5-3.14,1.05-1.06,1.87-2.28,2.44-3.62,.63-1.4,.97-2.9,.99-4.46,0-.08-.02-.14-.05-.21h0Zm-.9-.25h-5.05c2.54-.79,3.91-2.06,4.58-2.88,.28,.91,.44,1.88,.47,2.88Zm-.84-3.88c-.21,.33-.76,1.07-1.85,1.8-.92,.62-2.39,1.32-4.53,1.68,1.22-.77,2.24-1.91,3.05-3.41,.68-1.26,1.05-2.5,1.24-3.28,.88,.93,1.59,2.03,2.09,3.21h0Zm-2.85-3.95c-.23,1.15-1.4,6.02-5.48,7.36,2.55-3.12,1.96-7.75,1.6-9.56,1.44,.46,2.76,1.22,3.88,2.2h0Zm-6.53-2.69c.58,.03,1.14,.11,1.69,.23,.26,1.19,1.19,6.14-1.33,9.25-.11-.07-.24-.11-.36-.14v-9.33h0Zm-.44,10.16c.44,0,.8,.36,.8,.8s-.36,.8-.8,.8-.8-.36-.8-.8,.36-.8,.8-.8Zm-5.62,17.29c0,.66-.54,1.2-1.2,1.2s-1.2-.54-1.2-1.2,.54-1.2,1.2-1.2c.27,0,.52,.09,.72,.25l-.95,.58c-.21,.13-.27,.41-.15,.61,.08,.14,.24,.21,.39,.21,.08,0,.16-.02,.24-.07l.95-.58c0,.07,.02,.13,.02,.2h0Zm.7-1.67l2.45-2.45,.8,.47-3.25,1.98h0Zm10.33,.48c.66,0,1.2,.54,1.2,1.2s-.54,1.2-1.2,1.2-1.21-.54-1.21-1.2c0-.07,0-.12,.02-.18l.96,.57c.07,.04,.15,.06,.23,.06,.15,0,.3-.08,.39-.22,.12-.21,.06-.49-.16-.61l-.96-.57c.21-.16,.46-.25,.74-.25h0Zm-1.44-.3l-.08,.08-3.81-2.24,1.08-.66,2.82,2.82h0Zm-4.77-2.67l-1.02-.59-.38-.23c.18,.02,.37,.04,.55,.05,.3,.02,.6,.03,.91,.03,.21,0,.41,0,.62-.02,.04,0,.08,.02,.1,.02h0c.14,0,.28,0,.42,0l-1.24,.75h.02Zm.07-1.63c-6.08,0-11.12-4.55-11.45-10.24h10.56c.2,.72,.85,1.24,1.63,1.24s1.43-.53,1.63-1.24h9.09c-.33,5.69-5.37,10.24-11.45,10.24h-.02Z"/>
      <path class="cls-9" d="M204.82,225.13c-.5,0-.97,.16-1.36,.45-.39-.29-.87-.45-1.36-.45-.3,0-.59,.06-.88,.18-1.15,.48-1.69,1.81-1.21,2.95,.16,.39,.43,.73,.77,.97h0l2.38,1.73s.08,.05,.11,.07c.06,.02,.1,.03,.16,.03,.09,0,.19-.03,.26-.08l2.39-1.74h0c.35-.25,.61-.58,.77-.97,.48-1.15-.06-2.47-1.21-2.95-.28-.12-.58-.18-.88-.18h.02Zm1.25,2.79c-.1,.25-.26,.44-.48,.59,0,0-.02,0-.03,.02l-2.1,1.54-2.11-1.54s-.02,0-.03-.02c-.22-.15-.38-.35-.48-.59-.29-.7,.04-1.5,.73-1.79,.17-.07,.35-.1,.53-.1,.4,0,.76,.17,1.03,.46,.08,.09,.21,.15,.34,.15h0c.13,0,.25-.06,.33-.15,.26-.29,.63-.46,1.03-.46,.18,0,.36,.04,.53,.1,.7,.29,1.02,1.09,.73,1.78h0Z"/>
      <path class="cls-9" d="M195.51,223.31h0l3.35,2.43s.07,.05,.1,.07c.06,.03,.11,.04,.17,.04,.08,0,.17-.03,.25-.08,0,0,0,0,.02,0l3.36-2.45s0,0,.02,0c.46-.32,.81-.76,1.04-1.28,.64-1.52-.08-3.28-1.6-3.92-.37-.15-.76-.24-1.16-.24-.71,0-1.38,.25-1.91,.69-.54-.44-1.21-.69-1.91-.69-.4,0-.79,.08-1.16,.24-.74,.31-1.31,.89-1.61,1.63s-.3,1.56,0,2.29c.22,.52,.58,.96,1.04,1.28h0Zm-.23-3.23c.22-.52,.61-.92,1.13-1.14,.26-.11,.54-.16,.81-.16,.6,0,1.18,.26,1.57,.71,.08,.09,.21,.15,.34,.15h0c.13,0,.25-.06,.33-.15,.4-.45,.98-.72,1.57-.72,.28,0,.56,.06,.81,.16,1.07,.45,1.57,1.69,1.12,2.75-.15,.37-.41,.69-.74,.91,0,0-.02,.02-.03,.03l-3.07,2.24-3.08-2.24s-.02,0-.03-.02c-.33-.23-.58-.55-.74-.91-.22-.52-.22-1.09,0-1.61h0Z"/>
      <path class="cls-9" d="M204.08,215.53h0l3.35,2.44s.08,.05,.11,.07c.06,.02,.11,.04,.17,.04,.09,0,.19-.03,.26-.08l3.36-2.45s0,0,.02,0c.46-.32,.82-.76,1.04-1.28,.64-1.52-.08-3.28-1.6-3.92-.37-.15-.75-.24-1.16-.24-.7,0-1.38,.25-1.91,.69-.54-.44-1.22-.69-1.91-.69-.4,0-.79,.08-1.16,.24-.74,.31-1.31,.89-1.61,1.63s-.3,1.56,0,2.29c.22,.52,.58,.96,1.04,1.28h0Zm.91-4.38c.26-.11,.54-.17,.81-.17,.6,0,1.18,.26,1.57,.72,.08,.09,.21,.15,.34,.15h0c.13,0,.25-.06,.33-.15,.4-.45,.97-.72,1.57-.72,.28,0,.56,.06,.81,.17,1.07,.45,1.57,1.69,1.12,2.75-.16,.37-.41,.69-.74,.91,0,0-.02,0-.03,.02l-3.07,2.24-3.08-2.24s-.02-.02-.03-.02c-.33-.23-.58-.55-.74-.91-.45-1.07,.06-2.3,1.12-2.75h.02Z"/>
    </g>
  </g>
  <g>
    <path class="cls-10" d="M24.51,255.33c2.32,0,4.05-2.37,4.05-4.47,0-2.23-1.82-4.04-4.05-4.04s-4.05,1.82-4.05,4.04,1.73,4.47,4.05,4.47Zm0-7.7c1.78,0,3.23,1.45,3.23,3.23s-1.39,3.66-3.23,3.66-3.23-1.93-3.23-3.66,1.45-3.23,3.23-3.23Z"/>
    <path class="cls-10" d="M30.05,262.13v-.08l-.04-3.68c0-1.32-.74-2.35-1.67-2.35h-8.36c-.26,0-.53,.05-.77,.14,.56-.78,.87-1.73,.87-2.72,0-1.8-1.02-3.37-2.51-4.16,.04-.15,.06-.31,.06-.47,0-1.19-.96-2.15-2.15-2.15s-2.15,.96-2.15,2.15c0,.13,0,.26,.04,.39-1.57,.76-2.67,2.38-2.67,4.23,0,1.11,.4,2.18,1.1,3.02-.03,0-.06,0-.08,.02l-.66,.22s-.08,.04-.12,.07c-1.3,1-5.3,3.95-5.34,3.97-.45,.32-.78,.76-.92,1.24-.16,.52-.09,1.02,.19,1.42,.09,.14,.22,.25,.36,.35-.83,.47-1.4,1.36-1.4,2.38v18.09c0,.23,.19,.41,.41,.41s.41-.18,.41-.41v-18.09c0-1.06,.86-1.91,1.91-1.91s1.91,.86,1.91,1.91c0,.23,.19,.41,.41,.41s.41-.19,.41-.41c0-1.14-.7-2.12-1.7-2.53,0,0,0,0,.02,0,0,0,2.37-1.68,3.21-2.27h.02c.22-.16,.46-.33,.54-.36,.05-.02,.27-.08,.44,.05,.1,.08,.18,.22,.23,.41l-.03,2.77c0,.09-.06,1.07-.25,2.04-.8,3.97-2.01,8.49-2.88,9.61-.36,.45-.33,.96,.07,1.35,.48,.47,1.57,.78,2.84,.97v4.5c0,1.1,.9,2.01,2.01,2.01,.65,0,1.24-.31,1.6-.8,.37,.48,.94,.8,1.6,.8,1.1,0,2.01-.9,2.01-2.01v-4.53c.51-.08,.99-.19,1.4-.32v4.38c0,1.37,1.01,2.48,2.25,2.48,.76,0,1.44-.41,1.85-1.06,.41,.64,1.08,1.06,1.85,1.06,1.24,0,2.25-1.11,2.25-2.48v-17.46c.83-.16,1.45-.91,1.45-1.8v-.78Zm-14.58-14.64c.74,0,1.33,.59,1.33,1.33,0,.05,0,.09,0,.14-.44-.14-.91-.22-1.41-.22-.43,0-.85,.06-1.24,.17v-.09c0-.74,.59-1.33,1.33-1.33h0Zm-3.96,5.96c0-2.14,1.73-3.87,3.87-3.87s3.87,1.73,3.87,3.87c0,.67-.17,1.31-.48,1.88,.15-.64,.13-1.31-.07-1.89-.04-.12-.14-.22-.25-.25,.11-.11,.15-.29,.08-.45-.09-.21-.33-.29-.54-.21-.38,.17-.74,.29-1.1,.38-1.16,.27-2.22,.16-2.96,0-.7-.16-1.13-.37-1.15-.37-.21-.1-.44-.02-.55,.19s-.02,.44,.19,.55h0s-.06,.07-.07,.1c-.34,.74-.39,1.54-.13,2.28,0,.03,.02,.06,.03,.08-.47-.66-.74-1.45-.74-2.28h0Zm1.62,.07h.02c.54,.17,1.34,.36,2.29,.36,.65,0,1.37-.08,2.12-.32,.12-.04,.25-.08,.38-.13,0,.04-.02,.08-.02,.13s0,.09,.02,.13c.41,1.21-.19,2.91-1.6,3.39-.63,.22-1.35,.14-2.01-.22-.63-.34-1.12-.89-1.33-1.51-.18-.54-.15-1.13,.1-1.68,.03-.06,.04-.11,.04-.17h0Zm1.84,29.1c0,.65-.54,1.19-1.19,1.19s-1.19-.54-1.19-1.19v-4.39c.78,.08,1.6,.12,2.38,.13v4.26Zm3.2,0c0,.65-.54,1.19-1.19,1.19s-1.19-.54-1.19-1.19v-4.27c.79,0,1.6-.06,2.38-.15v4.41h0Zm2.76-6c-.69,.57-3.09,.93-5.84,.92-2.72-.02-5.03-.41-5.59-.96-.08-.08-.11-.11,0-.26,1.32-1.69,2.76-8.58,3.04-9.95,.22-1.07,.26-2.11,.27-2.16v-.02l.05-4.83c.45,.07,1.13,.09,2.12,.09,1.56,0,2.35-.08,2.72-.25h.02c.19-.1,.27-.34,.18-.54-.09-.21-.34-.29-.55-.2-.16,.08-.7,.17-2.37,.17s-2.19-.09-2.35-.17c-.12-.06-.27-.05-.4,.02-.11,.08-.19,.21-.19,.34v1.37c-.29-.11-.63-.13-.94-.03-.23,.08-.61,.36-.78,.49-.86,.6-3.21,2.27-3.21,2.27-.3,.22-.65,.32-.97,.31-.28,0-.51-.12-.64-.31-.13-.19-.16-.43-.08-.71,.09-.31,.31-.59,.62-.82,.04-.03,3.93-2.9,5.3-3.95l.54-.17h.81s.09,.03,.14,.03,.09,0,.14-.03h.45c.16,.12,.32,.23,.5,.32,.54,.28,1.1,.43,1.66,.43,.34,0,.68-.06,1-.17,.39-.13,.74-.34,1.03-.59h1.59c.69,0,1.25,.63,1.27,1.42v3.75c-.03,.14-.05,.28-.05,.42s.02,.29,.05,.42v2.84c0,.5-.34,.91-.76,.91-.2,0-.39-.09-.52-.25-.08-.56-.17-1.08-.25-1.57-.02-.12-.04-.25-.06-.36-.03-.2-.06-.39-.08-.57,.05,0,.09-.02,.14-.03,.13-.04,.25-.08,.37-.14,.47-.24,.81-.66,.94-1.21,.13-.52,.07-1.08-.19-1.58-.29-.58-.81-1.01-1.39-1.17-.08-.09-.19-.16-.32-.16h0c-.07,0-.13,.02-.19,.05-.02,0-.05,.03-.07,.04-.25,0-.5,.07-.74,.19-.47,.24-.81,.67-.94,1.21-.13,.52-.07,1.08,.19,1.58,.29,.58,.78,.99,1.35,1.16v.03c.04,.23,.07,.46,.1,.72,.49,3.28,1.32,8.76,2.92,11.29,.08,.11,.1,.19-.08,.34h.02Zm-2.4-13.1c-.46,0-.92-.31-1.17-.79-.17-.33-.21-.69-.12-1.02,.08-.31,.26-.55,.52-.68,.13-.07,.28-.1,.43-.1,.47,0,.92,.31,1.17,.79,.16,.33,.21,.69,.12,1.02-.08,.31-.26,.55-.52,.68-.13,.07-.28,.1-.43,.1Zm7.81,20.29c-.79,0-1.44-.74-1.44-1.66v-10.37c0-.23-.19-.41-.41-.41s-.41,.18-.41,.41v10.37c0,.91-.64,1.66-1.44,1.66s-1.44-.74-1.44-1.66v-4.73c.09-.06,.17-.1,.25-.17,.48-.39,.58-.91,.26-1.41-.18-.28-.35-.6-.51-.95-.3-.68-.58-1.48-.82-2.34-.41-1.49-.74-3.16-1.02-4.72,.11,.03,.24,.05,.35,.05,.24,0,.46-.06,.66-.16,.38-.19,.67-.53,.82-.95,.07-.19,.1-.4,.1-.6v-1.69c.26,.16,.58,.26,.91,.26h5.55v17.43c0,.91-.64,1.66-1.43,1.66h.02Zm1.93-19.91h-6.04c-.54,0-.96-.45-.96-1.02s.43-1.02,.96-1.02h5.59c.13,0,.25-.07,.32-.16l.02,.02v-.04c.04-.07,.07-.14,.07-.23s-.03-.16-.07-.23c0-1.26,.04-2.72,.04-2.75,0-.23-.17-.41-.4-.42-.23,0-.41,.17-.42,.4,0,.08-.04,1.39-.04,2.59h-5.11c-.34,0-.65,.09-.91,.26v-2.55c0-.79-.37-1.5-.93-1.91h7.97c.4,0,.85,.62,.85,1.54l.03,2.82v1.74c-.03,.54-.45,.95-.96,.95h0Z"/>
  </g>
  <g>
    <path class="cls-9" d="M101.11,327.39l-20.86-17.77c-.17-.14-.43-.15-.61,0l-17.75,14.48-4.05,3.29c-.15,.13-.21,.33-.14,.52,.06,.18,.24,.31,.44,.31h4.23v22.11c0,.26,.21,.47,.47,.47s.47-.21,.47-.47v-22.11h1.48c.26,0,.47-.21,.47-.47s-.21-.47-.47-.47h-5.33l3.02-2.46,17.45-14.23,19.59,16.7h-4.19c-.26,0-.47,.21-.47,.47s.21,.47,.47,.47h.3v22.11c0,.26,.21,.47,.47,.47s.47-.21,.47-.47v-22.11h4.23c.2,0,.37-.12,.44-.31,.06-.19,0-.39-.14-.52v-.02Z"/>
    <path class="cls-9" d="M70.94,328.21c.59,0,1.13-.17,1.58-.46,1.07-.68,1.74-1.98,1.74-3.19,0-1.84-1.49-3.33-3.32-3.33s-3.32,1.49-3.32,3.33c0,1.2,.67,2.51,1.74,3.19,.46,.29,1,.46,1.58,.46Zm-2.39-3.66c0-1.31,1.07-2.39,2.39-2.39s2.38,1.07,2.38,2.39-1.04,2.72-2.38,2.72-2.39-1.46-2.39-2.72Z"/>
    <path class="cls-9" d="M91.32,328.33c.26,0,.47-.21,.47-.47v-3.58c0-2.29-1.86-4.15-4.15-4.15s-4.15,1.86-4.15,4.15v3.58c0,.26,.21,.47,.47,.47s.47-.21,.47-.47v-3.58c0-.77,.27-1.48,.72-2.03-.04,.14-.02,.28,.06,.41,.02,.02,.08,.12,.21,.26-.34,.47-.53,1.04-.53,1.63,0,1.6,1.29,3.01,2.75,3.01,1.34,0,2.53-1.19,2.72-2.62,.08,0,.16-.02,.24-.04,.1-.02,.18-.06,.25-.13v3.09c0,.26,.21,.47,.47,.47h0Zm-3.68-1.73c-1.02,0-1.81-1.11-1.81-2.07,0-.33,.1-.67,.27-.95,.71,.61,1.83,1.29,3.29,1.38-.19,.83-.89,1.65-1.76,1.65Zm2.81-2.64c-.32,.05-.62,.07-.91,.05-1.3-.05-2.29-.68-2.9-1.2-.42-.37-.65-.69-.68-.72-.13-.17-.35-.24-.54-.16,.58-.54,1.35-.88,2.21-.88,1.71,0,3.11,1.35,3.21,3.03-.1-.1-.24-.14-.4-.13h0Z"/>
    <path class="cls-9" d="M92.92,337.08v-4.85s0-.09-.02-.14v-.02c0-2.44-2.16-4.09-5.38-4.09s-5.12,1.6-5.12,4.09v.44c-.97,.2-1.7,1.06-1.7,2.08s.72,1.87,1.68,2.08c-1.27,.1-2.43,.61-2.43,1.5v.6c-.14-.32-.39-.56-.71-.69v-6.24c0-.13-.05-.24-.14-.33-.09-.09-.21-.14-.33-.14-.57,0-1.13,.08-1.67,.21-.04,0-.07,0-.11,.03-.14,.04-.29,.08-.43,.13v-1.07c-.03-1.23-.95-2.22-2.08-2.22h-7.07c-1.06,0-1.95,.88-2.07,2.03v7.16c0,.95,.71,1.73,1.59,1.73,.24,0,.45-.05,.65-.15v9.86c0,.46,.14,.89,.38,1.24,.35,.52,.91,.85,1.54,.85,.58,0,1.1-.28,1.45-.72,.35,.44,.87,.72,1.45,.72s1.06-.26,1.41-.68c.21,.61,.78,1.05,1.46,1.05,.74,0,1.37-.52,1.51-1.22,.02-.1,.04-.21,.04-.32,0-.12-.02-.23-.04-.33l2.53-1.49,2.42,1.47c-.03,.12-.05,.24-.05,.36,0,.11,0,.22,.04,.32,.14,.7,.77,1.22,1.51,1.22,.68,0,1.25-.43,1.46-1.04,.36,.41,.9,.67,1.48,.67s1.16-.28,1.52-.71c.36,.43,.91,.71,1.52,.71,.67,0,1.27-.33,1.63-.85,.23-.33,.36-.71,.36-1.14v-6.37c.49-.14,.92-.35,1.22-.62,.48-.43,.57-.98,.24-1.53-.37-.62-.69-1.28-.95-1.86,.69-.16,1.21-.87,1.21-1.73h0Zm-11.28-2.47c0-.65,.53-1.19,1.19-1.19s1.19,.53,1.19,1.19-.53,1.19-1.19,1.19-1.19-.53-1.19-1.19Zm2.86,1.31c-.03,.32-.06,.64-.12,.98-.32-.1-.66-.16-1.02-.2v-.03c.46-.12,.86-.39,1.15-.75h0Zm-3.61,2.27c.02-.14,.66-.58,1.94-.58s1.92,.44,1.94,.58v.63h-3.88v-.63h0Zm-2.12,.76c.19,0,.34,.15,.34,.34s-.15,.33-.34,.33-.33-.15-.33-.33,.15-.34,.33-.34Zm-1.23-6.49c.25-.05,.51-.09,.76-.11v5.74c-1.4-1.87-.95-4.74-.76-5.63Zm-1.01,.29c-.21,1.24-.41,3.67,.77,5.55-2.05-1.01-2.7-3.5-2.86-4.32,.62-.52,1.32-.94,2.09-1.23h0Zm-3.94,3.71c.27-.62,.63-1.19,1.07-1.71,.28,.98,.89,2.55,2.14,3.66-2.05-.51-2.93-1.53-3.21-1.95h0Zm1.56,2.36h-2.13c.03-.45,.09-.9,.21-1.32,.39,.42,1,.91,1.92,1.32Zm-3.2,1.67c-.26,0-.47,.21-.47,.47v8.13c0,.63-.43,1.15-.98,1.15s-.98-.52-.98-1.15v-15.77c0-.26-.21-.47-.47-.47s-.47,.21-.47,.47v4.35c0,.43-.3,.77-.65,.77s-.65-.35-.65-.79v-7.01c.05-.69,.54-1.22,1.14-1.22h7.07c.62,0,1.12,.57,1.14,1.29v1.43c-.55,.25-1.07,.57-1.54,.95-.13,.1-.25,.21-.38,.32-.06,.04-.12,.09-.16,.14-.05,.05-.11,.11-.17,.16-.72,.72-1.31,1.59-1.71,2.56-.03,.05-.05,.09-.05,.14-.33,.85-.52,1.76-.52,2.72-.02,.05-.04,.12-.04,.18,0,.43,.05,.84,.13,1.25-.06-.04-.14-.06-.23-.06h0Zm2.43,8.59c0,.63-.43,1.15-.98,1.15s-.98-.52-.98-1.15v-7.58c.07,.24,.16,.45,.26,.68,0,0,0,.03,.02,.04,.02,.04,.03,.07,.05,.11,.4,.89,.95,1.69,1.63,2.37v4.39Zm1.89,1.52c-.33,0-.6-.27-.6-.61s.27-.6,.6-.6,.6,.27,.6,.6-.27,.61-.6,.61Zm1.02-1.76c-.27-.24-.63-.39-1.02-.39-.35,0-.69,.12-.95,.33v-3.29c.78,.57,1.67,1,2.62,1.24l1.44,.88-2.1,1.23h0Zm3.01-1.76l-.15-.09h.32s-.16,.09-.16,.09Zm3.91,3.53c-.33,0-.6-.27-.6-.61s.27-.6,.6-.6,.6,.27,.6,.6-.27,.61-.6,.61Zm0-2.14c-.39,0-.73,.14-1,.38l-1.99-1.21,1.97-1.17c.71-.26,1.38-.62,1.97-1.04v3.37c-.26-.21-.59-.33-.95-.33h0Zm-3.96-2.41c-3.78,0-6.93-2.78-7.25-6.29h5.58c.19,.47,.65,.81,1.19,.81s1-.33,1.19-.81h6.53c-.31,3.51-3.46,6.29-7.25,6.29h0Zm7.95,3.13c0,.58-.47,1.05-1.05,1.05s-1.05-.47-1.05-1.05v-4.53c.45-.44,.86-.93,1.19-1.47,.33,.03,.64,.05,.91,.05,0,0,0,5.95,0,5.95Zm3.04,0c0,.58-.47,1.05-1.05,1.05s-1.05-.47-1.05-1.05v-5.95c.51-.02,1.3-.06,2.1-.2v6.15h0Zm1.74-12.12c0,.44-.26,.82-.57,.82-.03,0-.05,0-.08,0-.23-.58-.36-1-.39-1.08-.02-.07-.1-.44-.14-.98,0-.46,0-.95,0-1.3,.03-.26,.07-.52,.14-.79,.03-.12,.06-.23,.1-.34,.12-.36,.29-.71,.53-1.02,.15-.21,.12-.5-.09-.66-.21-.15-.5-.12-.66,.09-.07,.09-.14,.19-.2,.29-1.29,2.05-.62,4.81-.59,4.94v.03c.03,.09,.68,2.17,1.81,4.07,.08,.14,.09,.21-.06,.34-.52,.47-2.11,.8-3.96,.81-.35,0-.71,0-1.03-.03,.39-.84,.62-1.76,.66-2.72l1.49-.97c.22-.14,.28-.43,.14-.65-.14-.22-.43-.28-.65-.14l-1.58,1.02h-1.14v-.63c0-.34-.17-.63-.45-.86,0-.07,.03-.14,.04-.21,.33-1.93,.22-3.54-.34-4.91-.03-.06-.05-.13-.08-.18-.11-.24-.38-.34-.62-.24-.24,.11-.34,.38-.24,.62,.09,.2,.16,.4,.23,.61-.25-.23-.56-.39-.9-.47v-.46c0-2.33,2.15-3.15,4.18-3.15,2.21,0,4.43,.98,4.43,3.15v.13s0,.09,.02,.14v4.73h.02Z"/>
  </g>
</svg>